<svg width="16" height="23" viewBox="0 0 16 23" fill="none" xmlns="http://www.w3.org/2000/svg">
<path d="M4.13794 17.8237H11.877V19.3715H4.13794V17.8237Z" fill="white"/>
<path d="M5.68579 20.9194H10.3292V22.4672H5.68579V20.9194Z" fill="white"/>
<path d="M8.00749 0.797852C5.95497 0.797852 3.9865 1.61321 2.53515 3.06457C1.08379 4.51593 0.26843 6.48439 0.26843 8.53691C0.216094 9.66166 0.431549 10.7828 0.897071 11.808C1.36259 12.8332 2.06488 13.7333 2.94615 14.4341C3.72005 15.1538 4.13796 15.564 4.13796 16.276H5.68577C5.68577 14.852 4.82674 14.0549 3.99092 13.2887C3.26759 12.7348 2.69112 12.012 2.31199 11.1835C1.93286 10.3551 1.76264 9.44639 1.81624 8.53691C1.81624 6.89489 2.46853 5.32012 3.62962 4.15904C4.7907 2.99795 6.36547 2.34566 8.00749 2.34566C9.64951 2.34566 11.2243 2.99795 12.3854 4.15904C13.5465 5.32012 14.1987 6.89489 14.1987 8.53691C14.2515 9.44706 14.08 10.3562 13.6995 11.1847C13.319 12.0132 12.7411 12.7356 12.0163 13.2887C11.1882 14.0626 10.3292 14.8365 10.3292 16.276H11.877C11.877 15.564 12.2872 15.1538 13.0688 14.4263C13.9495 13.7267 14.6515 12.828 15.117 11.8041C15.5825 10.7802 15.7983 9.66046 15.7466 8.53691C15.7466 7.52061 15.5464 6.51425 15.1575 5.5753C14.7685 4.63636 14.1985 3.78321 13.4798 3.06457C12.7612 2.34593 11.908 1.77588 10.9691 1.38695C10.0302 0.998028 9.0238 0.797852 8.00749 0.797852Z" fill="white"/>
</svg>
