<svg width="25" height="25" viewBox="0 0 25 25" fill="none" xmlns="http://www.w3.org/2000/svg">
<path d="M12.785 23.57C18.7414 23.57 23.57 18.7414 23.57 12.785C23.57 6.82861 18.7414 2 12.785 2C6.82861 2 2 6.82861 2 12.785C2 18.7414 6.82861 23.57 12.785 23.57Z" stroke="black" stroke-width="2.157" stroke-linecap="round" stroke-linejoin="round"/>
<path d="M9.64661 9.5494C9.90017 8.8286 10.4006 8.2208 11.0594 7.83365C11.7181 7.4465 12.4927 7.30498 13.2458 7.43415C13.9988 7.56333 14.6819 7.95486 15.174 8.53942C15.6661 9.12397 15.9354 9.86381 15.9343 10.6279C15.9343 12.7849 12.6988 13.8634 12.6988 13.8634" stroke="black" stroke-width="2.157" stroke-linecap="round" stroke-linejoin="round"/>
<path d="M12.785 18.1775H12.795" stroke="black" stroke-width="2.157" stroke-linecap="round" stroke-linejoin="round"/>
</svg>
